<?xml version="1.0" encoding="utf-8"?>
<!-- Generator: Adobe Illustrator 23.1.0, SVG Export Plug-In . SVG Version: 6.00 Build 0)  -->
<svg version="1.1" id="svg1359" xmlns="http://www.w3.org/2000/svg" xmlns:xlink="http://www.w3.org/1999/xlink" x="0px" y="0px"
	 viewBox="0 0 1920 1080" style="enable-background:new 0 0 1920 1080;" xml:space="preserve">
<style type="text/css">
	.st0{fill:#ECECEC;}
	.st1{fill:#FFFFFF;}
	.st2{fill:#E6E6E6;}
	.st3{fill:#CCCCCC;}
	.st4{fill:#F9F9F9;}
	.st5{fill:#414141;}
	.st6{fill:#E5E5E5;}
</style>
<path id="path1249" class="st0" d="M833,66.8v399.9L1410.3,800V400L833,66.8z"/>
<path id="path1251" class="st1" d="M856.1,453.3V106.7l531.1,306.6V760L856.1,453.3z"/>
<path id="path1253" class="st2" d="M833,66.8l23.1-13.3l577.2,333.3l-23.1,13.3L833,66.8z"/>
<path id="path1255" class="st3" d="M1410.3,400l23.1-13.3v399.9l-23.1,13.3V400z"/>
<path id="path1257" class="st0" d="M833,466.7l-346.3,200l577.2,333.3l346.3-200L833,466.7z"/>
<path id="path1259" class="st0" d="M486.7,666.6v26.7l577.2,333.3v-26.7L486.7,666.6z"/>
<path id="path1261" class="st3" d="M1063.9,1026.6v-26.7l369.4-213.3v26.7L1063.9,1026.6z"/>
<path id="path1263" class="st4" d="M833,493.3L1364.1,800l-207.8,120L625.2,613.3L833,493.3z"/>
<path id="path1265" class="st3" d="M809.9,746.6l115.4,66.7l-69.3,40l-115.4-66.7L809.9,746.6z"/>
<path id="path1267" class="st5" d="M833,66.8v399.9L1410.3,800V400L833,66.8z"/>
<path id="path1269" class="st2" d="M833,66.8l23.1-13.3l577.2,333.3l-23.1,13.3L833,66.8z"/>
<path id="path1271" class="st3" d="M1410.3,400l23.1-13.3v399.9l-23.1,13.3V400z"/>
<path id="path1273" class="st0" d="M833,466.7l-346.3,200l577.2,333.3l346.3-200L833,466.7z"/>
<path id="path1275" class="st6" d="M486.7,666.6v26.7l577.2,333.3v-26.7L486.7,666.6z"/>
<path id="path1277" class="st3" d="M1063.9,1026.6v-26.7l369.4-213.3v26.7L1063.9,1026.6z"/>
<path id="path1279" class="st3" d="M833,493.6L1363.5,800l-207.3,119.7L625.7,613.3L833,493.6z"/>
<path id="path1281" class="st3" d="M809.9,746.6l115.4,66.7l-69.3,40l-115.4-66.7L809.9,746.6z"/>
<path id="path2057" class="st1" d="M856.1,453.3V106.7l531.1,306.6V760L856.1,453.3z"/>
</svg>
